<svg xmlns="http://www.w3.org/2000/svg" xmlns:xlink="http://www.w3.org/1999/xlink" width="375.92578125" height="101.4609375"><path d="M20.67-48.83L20.67-48.83L20.67-48.83Q17.75-47.64 15.68-45.18L15.68-45.18L15.68-45.18Q13.61-42.71 13.61-40.22L13.61-40.22L13.61-40.22Q13.61-37.72 14.64-35.86L14.64-35.86L14.64-35.86Q15.68-34.00 17.37-32.36L17.37-32.36L17.37-32.36Q19.05-30.73 21.06-29.02L21.06-29.02L21.06-29.02Q23.06-27.32 25.08-25.44L25.08-25.44L25.08-25.44Q27.11-23.55 28.79-21.52L28.79-21.52L28.79-21.52Q32.55-16.98 32.55-11.39L32.55-11.39L32.55-11.39Q32.55-7.98 31.11-5.04L31.11-5.04L31.11-5.04Q29.67-2.11 27.30-0.07L27.30-0.07L27.30-0.07Q24.93 1.97 21.83 3.45L21.83 3.45L21.83 3.45Q15.79 6.33 8.86 6.33L8.86 6.33L8.86 6.33Q4.78 6.33 1.34 4.32L1.34 4.32L1.34 4.32Q-0.35 3.34-1.41 1.67L-1.41 1.67L-1.41 1.67Q-2.46 0-2.46-2.18L-2.46-2.18L-2.46-2.18Q-2.46-4.36-0.77-5.77L-0.77-5.77L-0.77-5.77Q0.91-7.17 3.38-7.28L3.38-7.28L4.89-7.35L4.89-7.35Q4.75-5.45 4.75-4.15L4.75-4.15L4.75-4.15Q4.75-2.85 4.76-2.36L4.76-2.36L4.76-2.36Q4.78-1.86 4.90-0.95L4.90-0.95L4.90-0.95Q5.03-0.04 5.26 0.40L5.26 0.40L5.26 0.40Q5.48 0.84 5.98 1.46L5.98 1.46L5.98 1.46Q6.47 2.07 7.17 2.36L7.17 2.36L7.17 2.36Q9.07 3.09 11.14 3.09L11.14 3.09L11.14 3.09Q13.22 3.09 15.05 2.64L15.05 2.64L15.05 2.64Q16.88 2.18 18.63 1.27L18.63 1.27L18.63 1.27Q20.39 0.35 21.80-0.91L21.80-0.91L21.80-0.91Q24.93-3.73 24.93-7.70L24.93-7.70L24.93-7.70Q24.93-11.46 21.16-15.86L21.16-15.86L21.16-15.86Q19.27-18.07 15.35-21.99L15.35-21.99L15.35-21.99Q11.43-25.91 9.74-27.84L9.74-27.84L9.74-27.84Q5.98-32.20 5.98-35.68L5.98-35.68L5.98-35.68Q5.98-39.16 7.37-42.01L7.37-42.01L7.37-42.01Q8.75-44.86 11.04-46.88L11.04-46.88L11.04-46.88Q13.32-48.90 16.24-50.41L16.24-50.41L16.24-50.41Q22.01-53.37 28.23-53.37L28.23-53.37L28.23-53.37Q32.45-53.37 36.07-51.19L36.07-51.19L36.07-51.19Q37.93-50.10 39.09-48.01L39.09-48.01L39.09-48.01Q40.25-45.91 40.25-43.14L40.25-43.14L40.25-43.14Q40.25-42.43 33.33-38.39L33.33-38.39L33.33-38.39Q26.40-34.35 24.54-33.68L24.54-33.68L24.54-37.16L24.54-37.16Q25.03-37.44 27.77-38.74L27.77-38.74L27.77-38.74Q33.93-41.63 33.93-43.07L33.93-43.07L33.93-43.07Q33.93-50.03 26.58-50.03L26.58-50.03L26.58-50.03Q23.59-50.03 20.67-48.83ZM58.54-51.26L58.54-51.26L49.32-17.93L49.32-17.93Q51.93-22.75 56.14-26.14L56.14-26.14L56.14-26.14Q60.36-29.53 64.37-29.53L64.37-29.53L64.37-29.53Q67.82-29.53 67.82-25.42L67.82-25.42L67.82-25.42Q67.82-23.94 65.55-17.35L65.55-17.35L65.55-17.35Q63.28-10.76 63.28-8.19L63.28-8.19L63.28-8.19Q63.28-7.14 63.95-7.14L63.95-7.14L63.95-7.14Q64.41-7.14 68.01-10.78L68.01-10.78L68.01-10.78Q71.61-14.41 73.02-15.61L73.02-15.61L73.02-11.67L73.02-11.67Q61.95 1.02 58.54 1.02L58.54 1.02L58.54 1.02Q56.29 1.02 56.29-1.65L56.29-1.65L56.29-1.65Q56.29-2.04 56.43-3.01L56.43-3.01L56.43-3.01Q56.57-3.97 57.55-7.31L57.55-7.31L57.55-7.31Q60.40-16.80 60.40-21.02L60.40-21.02L60.40-21.02Q60.40-23.03 58.39-23.03L58.39-23.03L58.39-23.03Q55.30-23.03 51.87-18.51L51.87-18.51L51.87-18.51Q48.45-13.99 47.23-9.40L47.23-9.40L47.23-9.40Q46.02-4.82 45.28-2.88L45.28-2.88L45.28-2.88Q44.54-0.95 43.42 0L43.42 0L37.93 0L37.93 0Q38.53-4.36 46.23-32.77L46.23-32.77L48.80-42.33L48.80-42.33Q50.45-48.55 51.89-50.20L51.89-50.20L51.89-50.20Q52.73-51.19 54.11-51.29L54.11-51.29L54.11-51.29Q55.48-51.40 56.83-51.40L56.83-51.40L56.83-51.40Q58.18-51.40 58.54-51.26ZM76.68-7.00L76.68-7.00L76.68-7.00Q76.68-4.68 77.91-4.68L77.91-4.68L77.91-4.68Q78.68-4.68 82.78-8.70L82.78-8.70L82.78-8.70Q86.87-12.73 89.30-15.40L89.30-15.40L89.30-11.46L89.30-11.46Q82.37-4.64 80.02-2.67L80.02-2.67L80.02-2.67Q75.73 0.88 72.67 1.02L72.67 1.02L72.67 1.02Q71.12 1.02 70.35-0.37L70.35-0.37L70.35-0.37Q69.57-1.76 69.57-3.94L69.57-3.94L69.57-3.94Q69.57-6.12 71.54-14.17L71.54-14.17L71.54-14.17Q73.51-22.22 74.16-23.91L74.16-23.91L74.16-23.91Q74.81-25.59 75.23-26.26L75.23-26.26L75.23-26.26Q75.66-26.93 76.29-27.32L76.29-27.32L76.29-27.32Q76.92-27.70 77.40-27.93L77.40-27.93L77.40-27.93Q77.87-28.16 78.86-28.27L78.86-28.27L78.86-28.27Q80.23-28.37 82.23-28.37L82.23-28.37L82.23-28.37Q76.68-10.58 76.68-7.00ZM82.72-37.72L82.72-37.72L82.72-37.72Q80.23-37.72 80.23-40.25L80.23-40.25L80.23-40.25Q80.23-42.01 81.54-43.65L81.54-43.65L81.54-43.65Q82.86-45.28 84.66-45.28L84.66-45.28L84.66-45.28Q86.45-45.28 87.33-44.58L87.33-44.58L87.33-44.58Q88.21-43.88 88.21-42.45L88.21-42.45L88.21-42.45Q88.21-41.03 86.54-39.38L86.54-39.38L86.54-39.38Q84.87-37.72 82.72-37.72ZM107.09-9.42L107.09-9.42L107.09-9.42Q107.72-8.23 107.79-7.49L107.79-7.49L107.79-7.49Q108.70-7.49 110.00-8.72L110.00-8.72L110.00-8.72Q111.30-9.95 112.08-10.74L112.08-10.74L112.08-10.74Q112.85-11.53 114.36-13.08L114.36-13.08L114.36-13.08Q115.88-14.63 116.93-15.68L116.93-15.68L116.93-11.74L116.93-11.74Q111.20-5.80 109.74-4.99L109.74-4.99L109.74-4.99Q108.28-4.18 107.51-4.18L107.51-4.18L107.51-4.18Q106.35-4.18 104.84-7.42L104.84-7.42L104.84-7.42Q101.95-2.36 100.44-1.13L100.44-1.13L100.44-1.13Q98.47 0.42 96.84 0.72L96.84 0.72L96.84 0.72Q95.20 1.02 93.69 1.02L93.69 1.02L93.69 1.02Q91.55 1.02 89.96-1.90L89.96-1.90L89.96-1.90Q86.98-7.45 86.98-19.09L86.98-19.09L86.98-19.09Q86.98-23.48 87.43-26.65L87.43-26.65L87.43-26.65Q87.64-28.37 92.95-28.37L92.95-28.37L95.77-28.37L95.77-28.37Q94.68-22.57 94.68-17.21L94.68-17.21L94.68-17.21Q94.68-11.85 95.78-7.98L95.78-7.98L95.78-7.98Q96.89-4.11 98.23-4.11L98.23-4.11L98.23-4.11Q99.28-4.11 102.13-8.93L102.13-8.93L102.13-8.93Q103.46-11.18 103.43-11.20L103.43-11.20L103.43-11.20Q103.39-11.21 103.39-13.01L103.39-13.01L103.39-13.01Q103.39-14.80 103.73-17.65L103.73-17.65L103.73-17.65Q104.06-20.50 104.73-23.24L104.73-23.24L104.73-23.24Q105.40-25.98 106.58-27.76L106.58-27.76L106.58-27.76Q107.75-29.53 109.23-29.53L109.23-29.53L109.23-29.53Q111.02-29.53 111.02-26.10L111.02-26.10L111.02-26.10Q111.02-22.68 109.55-17.30L109.55-17.30L109.55-17.30Q108.07-11.92 107.09-9.42ZM117.67 1.02L117.67 1.02L117.67 1.02Q113.45 1.02 112.46-4.92L112.46-4.92L112.46-4.92Q112.25-6.36 112.25-7.91L112.25-7.91L112.25-7.91Q112.25-11.74 114.15-15.64L114.15-15.64L114.15-15.64Q116.05-19.55 119.16-22.61L119.16-22.61L119.16-22.61Q122.27-25.66 126.62-27.60L126.62-27.60L126.62-27.60Q130.96-29.53 135.49-29.53L135.49-29.53L135.49-29.53Q137.71-29.53 141.40-28.37L141.40-28.37L141.40-28.37Q141.36-28.13 140.70-25.15L140.70-25.15L140.70-25.15Q140.03-22.18 139.36-19.09L139.36-19.09L139.36-19.09Q137.53-10.62 137.53-8.58L137.53-8.58L137.53-8.58Q137.53-6.54 138.59-6.54L138.59-6.54L138.59-6.54Q140.91-6.54 149.34-15.47L149.34-15.47L149.34-11.53L149.34-11.53Q144-6.01 139.17-2.50L139.17-2.50L139.17-2.50Q134.33 1.02 132.71 1.02L132.71 1.02L132.71 1.02Q130.04 1.02 130.04-3.59L130.04-3.59L130.04-3.59Q130.04-5.10 130.32-7.00L130.32-7.00L130.32-7.00Q127.79-3.69 124.44-1.34L124.44-1.34L124.44-1.34Q121.08 1.02 117.67 1.02ZM119.74-9.88L119.74-9.88L119.74-9.88Q119.74-4.61 123.19-4.61L123.19-4.61L123.19-4.61Q124.66-4.61 126.83-6.15L126.83-6.15L126.83-6.15Q128.99-7.70 130.75-9.56L130.75-9.56L134.79-26.86L134.79-26.86Q130.99-26.86 127.44-24.15L127.44-24.15L127.44-24.15Q123.89-21.45 121.82-17.51L121.82-17.51L121.82-17.51Q119.74-13.57 119.74-9.88ZM143.05 1.05L144.39-0.07L145.72-4.82L145.72-4.82Q146.53-9.07 148.15-16.03L148.15-16.03L148.15-16.03Q149.77-22.99 150.24-24.19L150.24-24.19L150.24-24.19Q150.71-25.38 151.01-25.93L151.01-25.93L151.01-25.93Q151.31-26.47 151.73-26.86L151.73-26.86L151.73-26.86Q152.16-27.25 152.47-27.51L152.47-27.51L152.47-27.51Q152.79-27.77 153.42-27.93L153.42-27.93L153.42-27.93Q154.05-28.09 154.39-28.20L154.39-28.20L154.39-28.20Q154.72-28.30 155.57-28.34L155.57-28.34L155.57-28.34Q156.41-28.37 156.76-28.37L156.76-28.37L156.76-28.37Q156.76-28.37 158.20-28.37L158.20-28.37L158.20-28.37Q158.17-28.20 157.52-26.00L157.52-26.00L157.52-26.00Q156.87-23.80 156.43-22.31L156.43-22.31L156.43-22.31Q155.99-20.81 155.25-18.19L155.25-18.19L155.25-18.19Q154.51-15.57 153.98-13.61L153.98-13.61L153.98-13.61Q153.46-11.64 152.93-9.53L152.93-9.53L152.93-9.53Q151.88-5.31 151.88-3.73L151.88-3.73L151.88-3.73Q152.58-4.01 156.73-7.66L156.73-7.66L156.73-7.66Q160.88-11.32 164.95-15.47L164.95-15.47L164.95-11.53L164.95-11.53Q161.72-8.23 159.79-6.40L159.79-6.40L159.79-6.40Q154.55-1.34 150.57 0.56L150.57 0.56L150.57 0.56Q150.40 1.41 150.01 3.27L150.01 3.27L150.01 3.27Q149.63 5.13 149.50 5.64L149.50 5.64L149.50 5.64Q149.38 6.15 149.10 7.52L149.10 7.52L149.10 7.52Q148.82 8.89 148.71 9.33L148.71 9.33L148.71 9.33Q148.61 9.77 148.36 10.85L148.36 10.85L148.36 10.85Q148.11 11.92 147.96 12.50L147.96 12.50L147.96 12.50Q147.80 13.08 147.55 14.08L147.55 14.08L147.55 14.08Q147.30 15.08 147.04 16.00L147.04 16.00L147.04 16.00Q146.78 16.91 146.46 18.07L146.46 18.07L146.46 18.07Q145.51 21.48 141.28 24.64L141.28 24.64L141.28 24.64Q137.04 27.81 132.86 27.81L132.86 27.81L132.86 27.81Q131.70 27.81 130.92 27.11L130.92 27.11L130.92 27.11Q129.41 25.73 129.41 22.22L129.41 22.22L129.41 22.22Q129.41 18.95 131.45 15.17L131.45 15.17L131.45 15.17Q133.49 11.39 135.56 8.89L135.56 8.89L135.56 8.89Q139.78 3.83 143.05 1.05L143.05 1.05ZM135.18 16.59L135.18 16.59L135.18 16.59Q134.54 18.11 134.21 19.48L134.21 19.48L134.21 19.48Q133.88 20.85 133.88 21.48L133.88 21.48L133.88 21.48Q133.88 22.11 134.42 23.04L134.42 23.04L134.42 23.04Q134.96 23.98 136.07 23.98L136.07 23.98L136.07 23.98Q137.18 23.98 137.85 23.54L137.85 23.54L137.85 23.54Q138.52 23.10 139.10 22.18L139.10 22.18L139.10 22.18Q139.68 21.27 140.15 20.30L140.15 20.30L140.15 20.30Q140.63 19.34 141.10 17.79L141.10 17.79L141.10 17.79Q141.57 16.24 141.91 15.08L141.91 15.08L141.91 15.08Q142.24 13.92 142.63 12.11L142.63 12.11L142.63 12.11Q143.02 10.30 143.23 9.28L143.23 9.28L143.23 9.28Q143.79 6.47 144.21 4.11L144.21 4.11L144.21 4.11Q136.76 12.90 135.18 16.59ZM158.70-37.72L158.70-37.72L158.70-37.72Q156.16-37.72 156.16-40.25L156.16-40.25L156.16-40.25Q156.16-41.98 157.48-43.63L157.48-43.63L157.48-43.63Q158.80-45.28 160.61-45.28L160.61-45.28L160.61-45.28Q162.42-45.28 163.30-44.58L163.30-44.58L163.30-44.58Q164.18-43.88 164.18-42.45L164.18-42.45L164.18-42.45Q164.18-41.03 162.51-39.38L162.51-39.38L162.51-39.38Q160.84-37.72 158.70-37.72ZM168.68-7.00L168.68-7.00L168.68-7.00Q168.68-4.68 169.91-4.68L169.91-4.68L169.91-4.68Q170.68-4.68 174.78-8.70L174.78-8.70L174.78-8.70Q178.88-12.73 181.30-15.40L181.30-15.40L181.30-11.46L181.30-11.46Q174.38-4.64 172.02-2.67L172.02-2.67L172.02-2.67Q167.73 0.88 164.67 1.02L164.67 1.02L164.67 1.02Q163.13 1.02 162.35-0.37L162.35-0.37L162.35-0.37Q161.58-1.76 161.58-3.94L161.58-3.94L161.58-3.94Q161.58-6.12 163.55-14.17L163.55-14.17L163.55-14.17Q165.52-22.22 166.17-23.91L166.17-23.91L166.17-23.91Q166.82-25.59 167.24-26.26L167.24-26.26L167.24-26.26Q167.66-26.93 168.29-27.32L168.29-27.32L168.29-27.32Q168.93-27.70 169.40-27.93L169.40-27.93L169.40-27.93Q169.88-28.16 170.86-28.27L170.86-28.27L170.86-28.27Q172.23-28.37 174.23-28.37L174.23-28.37L174.23-28.37Q168.68-10.58 168.68-7.00ZM174.73-37.72L174.73-37.72L174.73-37.72Q172.23-37.72 172.23-40.25L172.23-40.25L172.23-40.25Q172.23-42.01 173.55-43.65L173.55-43.65L173.55-43.65Q174.87-45.28 176.66-45.28L176.66-45.28L176.66-45.28Q178.45-45.28 179.33-44.58L179.33-44.58L179.33-44.58Q180.21-43.88 180.21-42.45L180.21-42.45L180.21-42.45Q180.21-41.03 178.54-39.38L178.54-39.38L178.54-39.38Q176.87-37.72 174.73-37.72ZM199.76-43.96L199.76-43.96L199.76-43.96Q207.14-48.52 211.66-51.15L211.66-51.15L211.66-51.15Q216.18-53.79 217.13-53.79L217.13-53.79L217.13-53.79Q218.07-53.79 218.07-53.05L218.07-53.05L218.07-53.05Q218.07-53.79 216-46.86L216-46.86L216-46.86Q213.93-39.94 212.73-35.19L212.73-35.19L212.73-35.19Q209.81-23.84 209.81-16.14L209.81-16.14L209.81-16.14Q209.81-6.40 215.26-6.40L215.26-6.40L215.26-6.40Q217.44-6.40 220.01-8.19L220.01-8.19L220.01-8.19Q222.57-9.98 224.91-12.83L224.91-12.83L224.91-12.83Q227.25-15.68 229.46-19.16L229.46-19.16L229.46-19.16Q233.72-25.91 235.93-32.41L235.93-32.41L235.93-32.41Q233.44-32.80 230.10-35.40L230.10-35.40L230.10-35.40Q228.45-36.70 227.30-38.92L227.30-38.92L227.30-38.92Q226.16-41.13 226.16-43.26L226.16-43.26L226.16-43.26Q226.16-45.39 226.58-46.99L226.58-46.99L226.58-46.99Q227.00-48.59 227.85-50.06L227.85-50.06L227.85-50.06Q229.75-53.37 233.72-53.37L233.72-53.37L233.72-53.37Q240.82-53.37 240.82-35.93L240.82-35.93L240.82-35.93Q244.62-36.46 249.50-39.16L249.50-39.16L249.50-39.16Q251.40-40.18 253.09-41.48L253.09-41.48L253.09-37.44L253.09-37.44Q246.76-33.33 240.40-32.27L240.40-32.27L240.40-32.27Q238.96-25.52 235.34-17.79L235.34-17.79L235.34-17.79Q231.61-9.81 225.91-4.08L225.91-4.08L225.91-4.08Q223.14-1.30 219.66 0.35L219.66 0.35L219.66 0.35Q216.18 2.00 212.63 2.00L212.63 2.00L212.63 2.00Q209.07 2.00 206.54 0.58L206.54 0.58L206.54 0.58Q204.01-0.84 202.61-3.38L202.61-3.38L202.61-3.38Q199.86-8.26 199.86-15.45L199.86-15.45L199.86-15.45Q199.86-22.64 201.71-29.83L201.71-29.83L201.71-29.83Q203.55-37.02 205.84-40.46L205.84-40.46L205.84-40.46Q206.72-41.77 207.76-43.63L207.76-43.63L207.76-43.63Q208.79-45.49 208.79-45.86L208.79-45.86L208.79-45.86Q208.79-46.23 208.71-46.23L208.71-46.23L208.71-46.23Q208.62-46.23 208.30-46.02L208.30-46.02L204.26-42.93L204.26-42.93Q203.66-42.57 201.16-41.03L201.16-41.03L201.16-41.03Q193.50-36.28 188.51-33.26L188.51-33.26L188.51-37.16L188.51-37.16Q192.38-39.41 199.76-43.96ZM236.29-36.14L236.29-36.14L236.36-37.51L236.36-37.51Q236.36-42.54 234.56-45.56L234.56-45.56L234.56-45.56Q233.65-47.07 232.49-47.07L232.49-47.07L232.49-47.07Q230.55-47.07 230.55-44.14L230.55-44.14L230.55-44.14Q230.55-41.20 232.22-38.94L232.22-38.94L232.22-38.94Q233.89-36.67 236.29-36.14ZM245.39 1.02L245.39 1.02L245.39 1.02Q241.17 1.02 240.19-4.92L240.19-4.92L240.19-4.92Q239.98-6.36 239.98-7.91L239.98-7.91L239.98-7.91Q239.98-11.74 241.88-15.64L241.88-15.64L241.88-15.64Q243.77-19.55 246.88-22.61L246.88-22.61L246.88-22.61Q250.00-25.66 254.34-27.60L254.34-27.60L254.34-27.60Q258.68-29.53 263.21-29.53L263.21-29.53L263.21-29.53Q265.43-29.53 269.12-28.37L269.12-28.37L269.12-28.37Q269.09-28.13 268.42-25.15L268.42-25.15L268.42-25.15Q267.75-22.18 267.08-19.09L267.08-19.09L267.08-19.09Q265.25-10.62 265.25-8.58L265.25-8.58L265.25-8.58Q265.25-6.54 266.31-6.54L266.31-6.54L266.31-6.54Q268.63-6.54 277.07-15.47L277.07-15.47L277.07-11.53L277.07-11.53Q271.72-6.01 266.89-2.50L266.89-2.50L266.89-2.50Q262.05 1.02 260.44 1.02L260.44 1.02L260.44 1.02Q257.77 1.02 257.77-3.59L257.77-3.59L257.77-3.59Q257.77-5.10 258.05-7.00L258.05-7.00L258.05-7.00Q255.52-3.69 252.16-1.34L252.16-1.34L252.16-1.34Q248.80 1.02 245.39 1.02ZM247.46-9.88L247.46-9.88L247.46-9.88Q247.46-4.61 250.91-4.61L250.91-4.61L250.91-4.61Q252.39-4.61 254.55-6.15L254.55-6.15L254.55-6.15Q256.71-7.70 258.47-9.56L258.47-9.56L262.51-26.86L262.51-26.86Q258.71-26.86 255.16-24.15L255.16-24.15L255.16-24.15Q251.61-21.45 249.54-17.51L249.54-17.51L249.54-17.51Q247.46-13.57 247.46-9.88ZM290.04-25.63L290.04-25.63L294.26-26.12L294.26-26.12Q295.28-26.12 295.28-25.63L295.28-25.63L295.28-25.63Q295.28-25.14 292.85-20.11L292.85-20.11L292.85-20.11Q287.30-8.72 287.30-6.40L287.30-6.40L287.30-6.40Q287.30-6.36 287.28-6.13L287.28-6.13L287.28-6.13Q287.26-5.91 287.28-5.78L287.28-5.78L287.28-5.78Q287.30-5.66 287.33-5.45L287.33-5.45L287.33-5.45Q287.37-5.24 287.44-5.13L287.44-5.13L287.44-5.13Q287.68-4.82 288.14-4.82L288.14-4.82L288.14-4.82Q289.05-4.82 293.75-8.98L293.75-8.98L293.75-8.98Q298.44-13.15 300.16-15.47L300.16-15.47L300.16-11.53L300.16-11.53Q287.61 1.02 283.25 1.02L283.25 1.02L283.25 1.02Q281.71 1.02 280.93-0.37L280.93-0.37L280.93-0.37Q280.16-1.76 280.16-3.09L280.16-3.09L280.16-3.09Q280.16-4.43 280.69-6.17L280.69-6.17L280.69-6.17Q281.21-7.91 282.11-10.16L282.11-10.16L282.11-10.16Q283.01-12.41 283.78-14.24L283.78-14.24L283.78-14.24Q284.55-16.07 285.49-18.19L285.49-18.19L285.49-18.19Q286.42-20.32 286.56-20.67L286.56-20.67L286.56-20.67Q284.55-18.63 281.90-16.21L281.90-16.21L281.90-16.21Q279.25-13.78 276.93-11.39L276.93-11.39L276.93-15.33L284.06-22.75L284.06-22.75Q279.77-23.80 278.51-26.05L278.51-26.05L278.51-26.05Q278.23-26.51 278.23-26.86L278.23-26.86L278.23-26.86Q278.23-29.32 280.09-31.18L280.09-31.18L280.09-31.18Q281.95-33.05 285.05-33.05L285.05-33.05L285.05-33.05Q286.63-33.05 286.63-31.18L286.63-31.18L286.63-31.18Q286.63-30.09 286.00-28.81L286.00-28.81L286.00-28.81Q285.36-27.53 284.48-27.07L284.48-27.07L284.48-27.07Q286.10-25.63 290.04-25.63ZM331.84 1.09L331.84 1.09L331.84 1.09Q329.77 1.09 329.77-2.00L329.77-2.00L329.77-2.00Q329.77-6.12 332.21-11.51L332.21-11.51L332.21-11.51Q334.65-16.91 334.65-20.46L334.65-20.46L334.65-20.46Q334.65-21.41 333.98-22.22L333.98-22.22L333.98-22.22Q333.32-23.03 331.96-23.03L331.96-23.03L331.96-23.03Q330.61-23.03 328.75-21.06L328.75-21.06L328.75-21.06Q326.88-19.09 325.41-16.37L325.41-16.37L325.41-16.37Q323.93-13.64 322.49-10.20L322.49-10.20L322.49-10.20Q320.27-4.75 318.94 0L318.94 0L312.19 0L312.19 0Q312.19-4.61 315.07-13.99L315.07-13.99L315.07-13.99Q316.79-19.58 316.79-20.83L316.79-20.83L316.79-20.83Q316.79-22.08 316.30-22.62L316.30-22.62L316.30-22.62Q315.81-23.17 315.32-23.17L315.32-23.17L315.32-23.17Q314.82-23.17 314.40-23.03L314.40-23.03L314.40-23.03Q312.12-21.97 309.88-18.90L309.88-18.90L309.88-18.90Q307.65-15.82 306.04-12.02L306.04-12.02L306.04-12.02Q303.01-4.99 301.75 0L301.75 0L295.03 0L295.03 0Q295.31-4.54 297.47-14.19L297.47-14.19L297.47-14.19Q299.64-23.84 301.39-26.65L301.39-26.65L301.39-26.65Q302.03-27.77 303.52-28.07L303.52-28.07L303.52-28.07Q305.02-28.37 308.64-28.37L308.64-28.37L308.64-28.37Q308.14-25.91 306.62-21.23L306.62-21.23L306.62-21.23Q305.09-16.56 304.77-15.47L304.77-15.47L304.77-15.47Q312.75-29.46 320.70-29.46L320.70-29.46L320.70-29.46Q322.07-29.46 322.73-27.93L322.73-27.93L322.73-27.93Q323.40-26.40 323.40-23.99L323.40-23.99L323.40-23.99Q323.40-21.59 321.54-15.47L321.54-15.47L321.54-15.47Q324.04-20.36 328.25-24.71L328.25-24.71L328.25-24.71Q330.36-26.86 332.82-28.20L332.82-28.20L332.82-28.20Q335.29-29.53 337.54-29.53L337.54-29.53L337.54-29.53Q341.47-29.53 341.47-24.12L341.47-24.12L341.47-24.12Q341.47-19.13 338.73-11.04L338.73-11.04L338.73-11.04Q337.96-8.79 337.96-8.07L337.96-8.07L337.96-8.07Q337.96-7.35 338.29-7.35L338.29-7.35L338.29-7.35Q338.63-7.35 339.01-7.54L339.01-7.54L339.01-7.54Q339.40-7.73 339.94-8.17L339.94-8.17L339.94-8.17Q340.49-8.61 341.02-9.09L341.02-9.09L341.02-9.09Q341.54-9.56 342.39-10.39L342.39-10.39L342.39-10.39Q343.23-11.21 343.90-11.87L343.90-11.87L343.90-11.87Q344.57-12.52 345.66-13.61L345.66-13.61L347.52-15.47L347.52-11.53L347.52-11.53Q343.13-7.00 338.34-2.95L338.34-2.95L338.34-2.95Q333.56 1.09 331.84 1.09ZM348.57 1.02L348.57 1.02L348.57 1.02Q344.36 1.02 343.37-4.92L343.37-4.92L343.37-4.92Q343.16-6.36 343.16-7.91L343.16-7.91L343.16-7.91Q343.16-11.74 345.06-15.64L345.06-15.64L345.06-15.64Q346.96-19.55 350.07-22.61L350.07-22.61L350.07-22.61Q353.18-25.66 357.52-27.60L357.52-27.60L357.52-27.60Q361.86-29.53 366.40-29.53L366.40-29.53L366.40-29.53Q368.61-29.53 372.30-28.37L372.30-28.37L372.30-28.37Q372.27-28.13 371.60-25.15L371.60-25.15L371.60-25.15Q370.93-22.18 370.27-19.09L370.27-19.09L370.27-19.09Q368.44-10.62 368.44-8.58L368.44-8.58L368.44-8.58Q368.44-6.54 369.49-6.54L369.49-6.54L369.49-6.54Q371.81-6.54 380.25-15.47L380.25-15.47L380.25-11.53L380.25-11.53Q374.91-6.01 370.07-2.50L370.07-2.50L370.07-2.50Q365.24 1.02 363.62 1.02L363.62 1.02L363.62 1.02Q360.95 1.02 360.95-3.59L360.95-3.59L360.95-3.59Q360.95-5.10 361.23-7.00L361.23-7.00L361.23-7.00Q358.70-3.69 355.34-1.34L355.34-1.34L355.34-1.34Q351.98 1.02 348.57 1.02ZM350.65-9.88L350.65-9.88L350.65-9.88Q350.65-4.61 354.09-4.61L354.09-4.61L354.09-4.61Q355.57-4.61 357.73-6.15L357.73-6.15L357.73-6.15Q359.89-7.70 361.65-9.56L361.65-9.56L365.70-26.86L365.70-26.86Q361.90-26.86 358.35-24.15L358.35-24.15L358.35-24.15Q354.80-21.45 352.72-17.51L352.72-17.51L352.72-17.51Q350.65-13.57 350.65-9.88Z"/></svg>
