<svg width="564.6" height="92.401" viewBox="0 0 564.6 92.401" xmlns="http://www.w3.org/2000/svg">
  <g id="svgGroup" stroke-linecap="round" fill-rule="evenodd" font-size="9pt"
     fill="black" style="stroke:currentColor;stroke-width:0.25mm;fill:currentColor">
    <path
      d="M 485.4 71.2 L 477.4 71.2 L 477.4 42.9 A 78.572 78.572 0 0 0 477.351 40.048 Q 477.3 38.639 477.195 37.391 A 42.075 42.075 0 0 0 477.05 35.95 Q 476.7 33 475.7 31 Q 474.7 29 472.85 28 A 7.478 7.478 0 0 0 471.084 27.334 Q 470.241 27.125 469.247 27.047 A 15.881 15.881 0 0 0 468 27 A 12.448 12.448 0 0 0 464.272 27.536 A 10.253 10.253 0 0 0 460.35 29.8 A 14.787 14.787 0 0 0 456.138 36.669 A 17.56 17.56 0 0 0 456.1 36.8 L 456.1 71.2 L 448.1 71.2 L 448.1 21.2 L 453.7 21.2 L 455.2 27.3 L 455.6 27.3 Q 458.3 24.1 461.85 22.05 A 13.923 13.923 0 0 1 465.368 20.649 Q 467.025 20.223 468.976 20.077 A 28.411 28.411 0 0 1 471.1 20 A 20.42 20.42 0 0 1 474.389 20.25 Q 476.177 20.542 477.642 21.176 A 10.788 10.788 0 0 1 478.95 21.85 Q 482 23.7 483.7 28.3 Q 486 24.4 490.05 22.2 Q 494.1 20 499.2 20 A 30.892 30.892 0 0 1 502.283 20.145 Q 504.533 20.371 506.3 20.95 Q 509.2 21.9 511.1 24.3 Q 513 26.7 513.85 30.8 A 35.304 35.304 0 0 1 514.36 34.108 Q 514.551 35.855 514.635 37.88 A 80.493 80.493 0 0 1 514.7 41.2 L 514.7 71.2 L 506.7 71.2 L 506.7 41.1 A 63.598 63.598 0 0 0 506.651 38.534 Q 506.6 37.267 506.495 36.144 A 34.04 34.04 0 0 0 506.35 34.85 Q 506.049 32.569 505.229 30.955 A 8.186 8.186 0 0 0 504.95 30.45 Q 503.9 28.7 502.05 27.85 Q 500.652 27.208 498.598 27.051 A 18.37 18.37 0 0 0 497.2 27 Q 492.867 27 490.186 29.103 A 8.736 8.736 0 0 0 489.4 29.8 A 12.865 12.865 0 0 0 487.063 33.076 Q 486.296 34.576 485.759 36.421 A 25.155 25.155 0 0 0 485.4 37.8 L 485.4 71.2 Z M 42.5 3.2 L 40 10.5 Q 37.923 9.507 34.093 8.595 A 68.388 68.388 0 0 0 33.25 8.4 Q 28.835 7.408 23.287 7.4 A 62.401 62.401 0 0 0 23.2 7.4 Q 18.993 7.4 16.127 8.599 A 9.97 9.97 0 0 0 13.3 10.35 A 10.621 10.621 0 0 0 11.179 12.894 A 8.573 8.573 0 0 0 10 17.3 Q 10 21.2 12.5 23.8 A 23.112 23.112 0 0 0 15.884 26.676 A 30.011 30.011 0 0 0 18.75 28.45 A 115.6 115.6 0 0 0 23.691 30.993 A 138.923 138.923 0 0 0 26.9 32.5 Q 31.3 34.5 35.05 37.15 Q 38.8 39.8 41.3 43.5 A 14.171 14.171 0 0 1 43.403 48.603 A 20.082 20.082 0 0 1 43.8 52.7 A 21.774 21.774 0 0 1 43.321 57.353 A 17.824 17.824 0 0 1 42.2 60.8 Q 40.6 64.4 37.5 67 A 20.477 20.477 0 0 1 32.623 70.008 A 25.463 25.463 0 0 1 30 71 A 28.9 28.9 0 0 1 24.829 72.113 A 38.808 38.808 0 0 1 20 72.4 A 80.698 80.698 0 0 1 14.945 72.252 Q 12.579 72.103 10.551 71.804 A 35.619 35.619 0 0 1 7.6 71.25 A 55.556 55.556 0 0 1 4.752 70.507 Q 1.856 69.663 0 68.7 L 2.8 61.2 A 17.096 17.096 0 0 0 4.452 62.008 Q 6.506 62.891 9.6 63.75 Q 14.1 65 19.7 65 A 29.746 29.746 0 0 0 24.043 64.694 A 25.51 25.51 0 0 0 25.9 64.35 Q 28.8 63.7 30.9 62.25 Q 33 60.8 34.25 58.6 A 9.433 9.433 0 0 0 35.339 55.453 A 12.558 12.558 0 0 0 35.5 53.4 A 11.507 11.507 0 0 0 35.089 50.25 A 8.815 8.815 0 0 0 33 46.55 A 22.725 22.725 0 0 0 29.489 43.543 A 29.111 29.111 0 0 0 26.75 41.85 A 76.724 76.724 0 0 0 21.287 39.15 A 90.041 90.041 0 0 0 18.6 38 Q 14.2 36.2 10.45 33.65 Q 6.7 31.1 4.2 27.35 Q 1.88 23.87 1.713 18.625 A 25.908 25.908 0 0 1 1.7 17.8 A 19.013 19.013 0 0 1 2.57 11.913 A 15.329 15.329 0 0 1 7.4 4.8 Q 12.082 0.857 20.003 0.153 A 40.652 40.652 0 0 1 23.6 0 Q 29.7 0 34.7 0.9 A 48.04 48.04 0 0 1 37.61 1.511 Q 40.477 2.214 42.371 3.136 A 13.962 13.962 0 0 1 42.5 3.2 Z M 96.3 71.2 L 88.3 71.2 L 88.3 42.7 Q 88.3 38.8 87.85 35.85 A 16.71 16.71 0 0 0 87.361 33.618 Q 87.012 32.444 86.504 31.483 A 9.397 9.397 0 0 0 86.2 30.95 Q 85 29 82.95 28 A 8.797 8.797 0 0 0 81.078 27.353 Q 80.153 27.138 79.064 27.054 A 19.07 19.07 0 0 0 77.6 27 Q 72.9 27 69.1 30.05 Q 65.3 33.1 64.2 37.9 L 64.2 71.2 L 56.2 71.2 L 56.2 1.2 L 64.2 1.2 L 64.2 26.8 L 64.6 26.8 Q 67.2 23.7 70.85 21.85 A 16.064 16.064 0 0 1 74.797 20.492 Q 77.116 20 79.9 20 Q 84.1 20 87.2 20.95 Q 90.3 21.9 92.35 24.3 Q 94.169 26.429 95.122 29.857 A 22.627 22.627 0 0 1 95.35 30.75 A 31.318 31.318 0 0 1 95.929 34.09 Q 96.138 35.797 96.229 37.77 A 69.971 69.971 0 0 1 96.3 41 L 96.3 71.2 Z M 313.9 1.2 L 331.7 49.3 L 334.1 59.9 L 334.2 59.9 L 336.8 49.1 L 353.7 1.2 L 362 1.2 L 335.5 72.3 L 331.8 72.3 L 304.8 1.2 L 313.9 1.2 Z M 187.6 30.9 L 185.1 24.9 A 26.449 26.449 0 0 1 190.338 22.494 A 33.532 33.532 0 0 1 193.95 21.5 Q 199 20.4 204.5 20.4 A 31.547 31.547 0 0 1 207.762 20.558 Q 209.354 20.724 210.69 21.064 A 13.534 13.534 0 0 1 212.85 21.8 A 14.312 14.312 0 0 1 215.241 23.133 Q 216.696 24.149 217.65 25.45 Q 219.3 27.7 219.85 30.4 Q 220.4 33.1 220.4 35.8 Q 220.4 41.8 220.1 47.5 A 219.377 219.377 0 0 0 219.842 54.391 A 185.145 185.145 0 0 0 219.8 58.3 A 81.557 81.557 0 0 0 219.942 63.199 A 69.083 69.083 0 0 0 220.1 65.3 A 35.631 35.631 0 0 0 220.67 69.23 A 29.372 29.372 0 0 0 221.2 71.4 L 215.3 71.4 L 213.2 64.4 L 212.7 64.4 A 15.404 15.404 0 0 1 211.399 66.131 A 18.987 18.987 0 0 1 210.45 67.15 A 13.534 13.534 0 0 1 208.388 68.829 A 16.551 16.551 0 0 1 207.2 69.55 A 18.247 18.247 0 0 1 204.873 70.621 A 23.926 23.926 0 0 1 202.8 71.3 Q 200.378 71.978 197.299 71.999 A 28.958 28.958 0 0 1 197.1 72 Q 193.9 72 191.15 71 Q 188.4 70 186.4 68.15 Q 184.4 66.3 183.25 63.7 A 13.365 13.365 0 0 1 182.236 59.986 A 17.053 17.053 0 0 1 182.1 57.8 Q 182.1 53.4 183.9 50.45 A 12.874 12.874 0 0 1 188.546 45.975 A 15.35 15.35 0 0 1 188.95 45.75 A 21.23 21.23 0 0 1 192.647 44.211 Q 194.546 43.613 196.75 43.25 Q 201.3 42.5 206.8 42.5 L 209.55 42.5 Q 210.9 42.5 212.3 42.7 A 65.534 65.534 0 0 0 212.515 40.019 Q 212.589 38.756 212.599 37.622 A 39.369 39.369 0 0 0 212.6 37.3 Q 212.6 32.608 210.999 30.318 A 5.331 5.331 0 0 0 210.4 29.6 Q 208.2 27.4 202.4 27.4 A 26.44 26.44 0 0 0 200.235 27.493 A 32.88 32.88 0 0 0 198.75 27.65 Q 196.8 27.9 194.75 28.35 Q 192.7 28.8 190.85 29.45 Q 189 30.1 187.6 30.9 Z M 366.2 30.9 L 363.7 24.9 A 26.449 26.449 0 0 1 368.938 22.494 A 33.532 33.532 0 0 1 372.55 21.5 Q 377.6 20.4 383.1 20.4 A 31.547 31.547 0 0 1 386.362 20.558 Q 387.954 20.724 389.29 21.064 A 13.534 13.534 0 0 1 391.45 21.8 A 14.312 14.312 0 0 1 393.841 23.133 Q 395.296 24.149 396.25 25.45 Q 397.9 27.7 398.45 30.4 Q 399 33.1 399 35.8 Q 399 41.8 398.7 47.5 A 219.377 219.377 0 0 0 398.442 54.391 A 185.145 185.145 0 0 0 398.4 58.3 A 81.557 81.557 0 0 0 398.542 63.199 A 69.083 69.083 0 0 0 398.7 65.3 A 35.631 35.631 0 0 0 399.27 69.23 A 29.372 29.372 0 0 0 399.8 71.4 L 393.9 71.4 L 391.8 64.4 L 391.3 64.4 A 15.404 15.404 0 0 1 389.999 66.131 A 18.987 18.987 0 0 1 389.05 67.15 A 13.534 13.534 0 0 1 386.988 68.829 A 16.551 16.551 0 0 1 385.8 69.55 A 18.247 18.247 0 0 1 383.473 70.621 A 23.926 23.926 0 0 1 381.4 71.3 Q 378.978 71.978 375.899 71.999 A 28.958 28.958 0 0 1 375.7 72 Q 372.5 72 369.75 71 Q 367 70 365 68.15 Q 363 66.3 361.85 63.7 A 13.365 13.365 0 0 1 360.836 59.986 A 17.053 17.053 0 0 1 360.7 57.8 Q 360.7 53.4 362.5 50.45 A 12.874 12.874 0 0 1 367.146 45.975 A 15.35 15.35 0 0 1 367.55 45.75 A 21.23 21.23 0 0 1 371.247 44.211 Q 373.146 43.613 375.35 43.25 Q 379.9 42.5 385.4 42.5 L 388.15 42.5 Q 389.5 42.5 390.9 42.7 A 65.534 65.534 0 0 0 391.115 40.019 Q 391.189 38.756 391.199 37.622 A 39.369 39.369 0 0 0 391.2 37.3 Q 391.2 32.608 389.599 30.318 A 5.331 5.331 0 0 0 389 29.6 Q 386.8 27.4 381 27.4 A 26.44 26.44 0 0 0 378.835 27.493 A 32.88 32.88 0 0 0 377.35 27.65 Q 375.4 27.9 373.35 28.35 Q 371.3 28.8 369.45 29.45 Q 367.6 30.1 366.2 30.9 Z M 531 30.9 L 528.5 24.9 A 26.449 26.449 0 0 1 533.738 22.494 A 33.532 33.532 0 0 1 537.35 21.5 Q 542.4 20.4 547.9 20.4 A 31.547 31.547 0 0 1 551.162 20.558 Q 552.754 20.724 554.09 21.064 A 13.534 13.534 0 0 1 556.25 21.8 A 14.312 14.312 0 0 1 558.641 23.133 Q 560.096 24.149 561.05 25.45 Q 562.7 27.7 563.25 30.4 Q 563.8 33.1 563.8 35.8 Q 563.8 41.8 563.5 47.5 A 219.377 219.377 0 0 0 563.242 54.391 A 185.145 185.145 0 0 0 563.2 58.3 A 81.557 81.557 0 0 0 563.342 63.199 A 69.083 69.083 0 0 0 563.5 65.3 A 35.631 35.631 0 0 0 564.07 69.23 A 29.372 29.372 0 0 0 564.6 71.4 L 558.7 71.4 L 556.6 64.4 L 556.1 64.4 A 15.404 15.404 0 0 1 554.799 66.131 A 18.987 18.987 0 0 1 553.85 67.15 A 13.534 13.534 0 0 1 551.788 68.829 A 16.551 16.551 0 0 1 550.6 69.55 A 18.247 18.247 0 0 1 548.273 70.621 A 23.926 23.926 0 0 1 546.2 71.3 Q 543.778 71.978 540.699 71.999 A 28.958 28.958 0 0 1 540.5 72 Q 537.3 72 534.55 71 Q 531.8 70 529.8 68.15 Q 527.8 66.3 526.65 63.7 A 13.365 13.365 0 0 1 525.636 59.986 A 17.053 17.053 0 0 1 525.5 57.8 Q 525.5 53.4 527.3 50.45 A 12.874 12.874 0 0 1 531.946 45.975 A 15.35 15.35 0 0 1 532.35 45.75 A 21.23 21.23 0 0 1 536.047 44.211 Q 537.946 43.613 540.15 43.25 Q 544.7 42.5 550.2 42.5 L 552.95 42.5 Q 554.3 42.5 555.7 42.7 A 65.534 65.534 0 0 0 555.915 40.019 Q 555.989 38.756 555.999 37.622 A 39.369 39.369 0 0 0 556 37.3 Q 556 32.608 554.399 30.318 A 5.331 5.331 0 0 0 553.8 29.6 Q 551.6 27.4 545.8 27.4 A 26.44 26.44 0 0 0 543.635 27.493 A 32.88 32.88 0 0 0 542.15 27.65 Q 540.2 27.9 538.15 28.35 Q 536.1 28.8 534.25 29.45 Q 532.4 30.1 531 30.9 Z M 140.1 21.2 L 152.1 50.5 L 154.9 60 L 155 60 L 157.5 50.3 L 168.7 21.2 L 177.3 21.2 L 156 72.3 L 152.6 72.3 L 130.9 21.2 L 140.1 21.2 Z M 237.1 70.9 L 237.1 21.2 L 245.1 21.2 L 245.1 73.9 Q 245.1 82.694 242.239 87.285 A 12.192 12.192 0 0 1 241.9 87.8 A 10.29 10.29 0 0 1 235.567 91.984 A 16.82 16.82 0 0 1 231.7 92.4 Q 230.9 92.4 230.2 92.35 Q 229.5 92.3 228.7 92.2 L 228.7 85.4 A 15.022 15.022 0 0 0 230.414 85.309 Q 232.041 85.121 233.15 84.55 Q 234.8 83.7 235.7 81.9 A 9.769 9.769 0 0 0 236.362 80.148 Q 236.709 78.9 236.85 77.35 A 54.632 54.632 0 0 0 237.002 75.154 Q 237.063 73.941 237.086 72.582 A 99.917 99.917 0 0 0 237.1 70.9 Z M 439.4 21.2 L 437.7 28.9 A 20.246 20.246 0 0 0 434.597 28.12 A 15.941 15.941 0 0 0 432 27.9 A 12.71 12.71 0 0 0 429.17 28.197 Q 426.811 28.735 425.2 30.25 A 10.158 10.158 0 0 0 422.16 35.865 A 12.588 12.588 0 0 0 422.1 36.2 L 422.1 71.2 L 414.1 71.2 L 414.1 21.2 L 419.7 21.2 L 421.2 27.3 L 421.6 27.3 Q 423.5 23.9 426.15 22.05 A 9.859 9.859 0 0 1 429.59 20.554 Q 431.106 20.2 432.9 20.2 A 20.022 20.022 0 0 1 435.773 20.42 Q 437.166 20.622 438.69 21.011 A 34.639 34.639 0 0 1 439.4 21.2 Z M 112.6 71.2 L 112.6 21.2 L 120.6 21.2 L 120.6 71.2 L 112.6 71.2 Z M 263.9 71.2 L 263.9 21.2 L 271.9 21.2 L 271.9 71.2 L 263.9 71.2 Z M 212.3 57.1 L 212.3 48.8 Q 210.9 48.7 209.45 48.65 Q 208 48.6 206.6 48.6 Q 203.5 48.6 200.55 48.95 A 22.313 22.313 0 0 0 197.816 49.44 A 16.579 16.579 0 0 0 195.35 50.25 Q 193.1 51.2 191.75 52.85 A 5.89 5.89 0 0 0 190.508 55.652 A 8.073 8.073 0 0 0 190.4 57 A 7.988 7.988 0 0 0 190.949 60.007 A 7.364 7.364 0 0 0 192.9 62.75 Q 195.4 65 199.3 65 A 17.88 17.88 0 0 0 201.94 64.814 A 13.465 13.465 0 0 0 204.3 64.25 A 16.309 16.309 0 0 0 206.468 63.34 A 12.706 12.706 0 0 0 208.1 62.35 Q 209.7 61.2 210.75 59.8 Q 211.8 58.4 212.3 57.1 Z M 390.9 57.1 L 390.9 48.8 Q 389.5 48.7 388.05 48.65 Q 386.6 48.6 385.2 48.6 Q 382.1 48.6 379.15 48.95 A 22.313 22.313 0 0 0 376.416 49.44 A 16.579 16.579 0 0 0 373.95 50.25 Q 371.7 51.2 370.35 52.85 A 5.89 5.89 0 0 0 369.108 55.652 A 8.073 8.073 0 0 0 369 57 A 7.988 7.988 0 0 0 369.549 60.007 A 7.364 7.364 0 0 0 371.5 62.75 Q 374 65 377.9 65 A 17.88 17.88 0 0 0 380.54 64.814 A 13.465 13.465 0 0 0 382.9 64.25 A 16.309 16.309 0 0 0 385.068 63.34 A 12.706 12.706 0 0 0 386.7 62.35 Q 388.3 61.2 389.35 59.8 Q 390.4 58.4 390.9 57.1 Z M 555.7 57.1 L 555.7 48.8 Q 554.3 48.7 552.85 48.65 Q 551.4 48.6 550 48.6 Q 546.9 48.6 543.95 48.95 A 22.313 22.313 0 0 0 541.216 49.44 A 16.579 16.579 0 0 0 538.75 50.25 Q 536.5 51.2 535.15 52.85 A 5.89 5.89 0 0 0 533.908 55.652 A 8.073 8.073 0 0 0 533.8 57 A 7.988 7.988 0 0 0 534.349 60.007 A 7.364 7.364 0 0 0 536.3 62.75 Q 538.8 65 542.7 65 A 17.88 17.88 0 0 0 545.34 64.814 A 13.465 13.465 0 0 0 547.7 64.25 A 16.309 16.309 0 0 0 549.868 63.34 A 12.706 12.706 0 0 0 551.5 62.35 Q 553.1 61.2 554.15 59.8 Q 555.2 58.4 555.7 57.1 Z M 110.9 6 Q 110.9 3.7 112.45 2.05 A 5.141 5.141 0 0 1 116.177 0.404 A 6.812 6.812 0 0 1 116.4 0.4 Q 118.8 0.4 120.5 2.05 A 5.585 5.585 0 0 1 121.814 3.956 A 5.371 5.371 0 0 1 122.2 6 A 5.069 5.069 0 0 1 121.755 8.145 A 4.976 4.976 0 0 1 120.5 9.8 A 5.955 5.955 0 0 1 116.549 11.299 A 7.577 7.577 0 0 1 116.4 11.3 Q 114 11.3 112.45 9.8 A 5.021 5.021 0 0 1 110.903 6.214 A 6.663 6.663 0 0 1 110.9 6 Z M 235.4 6 Q 235.4 3.7 236.95 2.05 A 5.141 5.141 0 0 1 240.677 0.404 A 6.812 6.812 0 0 1 240.9 0.4 Q 243.3 0.4 245 2.05 A 5.585 5.585 0 0 1 246.314 3.956 A 5.371 5.371 0 0 1 246.7 6 A 5.069 5.069 0 0 1 246.255 8.145 A 4.976 4.976 0 0 1 245 9.8 A 5.955 5.955 0 0 1 241.049 11.299 A 7.577 7.577 0 0 1 240.9 11.3 Q 238.5 11.3 236.95 9.8 A 5.021 5.021 0 0 1 235.403 6.214 A 6.663 6.663 0 0 1 235.4 6 Z M 262.2 6 Q 262.2 3.7 263.75 2.05 A 5.141 5.141 0 0 1 267.477 0.404 A 6.812 6.812 0 0 1 267.7 0.4 Q 270.1 0.4 271.8 2.05 A 5.585 5.585 0 0 1 273.114 3.956 A 5.371 5.371 0 0 1 273.5 6 A 5.069 5.069 0 0 1 273.055 8.145 A 4.976 4.976 0 0 1 271.8 9.8 A 5.955 5.955 0 0 1 267.849 11.299 A 7.577 7.577 0 0 1 267.7 11.3 Q 265.3 11.3 263.75 9.8 A 5.021 5.021 0 0 1 262.203 6.214 A 6.663 6.663 0 0 1 262.2 6 Z"
      vector-effect="non-scaling-stroke"/>
  </g>
</svg>
