<?xml version="1.0" encoding="utf-8"?>
<!-- Generator: Adobe Illustrator 25.2.1, SVG Export Plug-In . SVG Version: 6.00 Build 0)  -->
<svg version="1.1" id="Layer_1" xmlns="http://www.w3.org/2000/svg" xmlns:xlink="http://www.w3.org/1999/xlink" x="0px" y="0px"
	 viewBox="0 0 500 500" style="enable-background:new 0 0 500 500;" xml:space="preserve">
<style type="text/css">
	.st0{fill:#2A4C87;}
	.st1{fill:#2E4E88;}
	.st2{fill:#1F3D70;}
	.st3{fill:#194C88;}
	.st4{fill:#3468A3;}
	.st5{fill:#4C8DCB;}
	.st6{fill:#3498B3;}
	.st7{fill:#0AA496;}
	.st8{fill:#00AA75;}
	.st9{fill:#4FBA6A;}
	.st10{fill:#7EC45F;}
	.st11{fill:#4C609B;}
	.st12{fill:#54669F;}
	.st13{fill:#746FA7;}
	.st14{fill:#99558E;}
	.st15{fill:#AF3379;}
	.st16{fill:#BE266A;}
	.st17{fill:#D4525C;}
	.st18{fill:#E0654F;}
	.st19{fill:#F57F2A;}
	.st20{fill:#F89828;}
	.st21{fill:#FEC127;}
	.st22{fill:#FED627;}
	.st23{fill:#351A55;}
</style>
<path class="st0" d="M402.6,218.1c2.1,8,10.3,12.8,18.4,10.6c8-2.1,12.8-10.3,10.6-18.4c-2.1-8-10.3-12.8-18.4-10.6l0,0
	C405.3,201.9,400.5,210.1,402.6,218.1z"/>
<path class="st0" d="M382.3,234.1c5.4-1.5,8.7-7.1,7.2-12.5s-7.1-8.7-12.5-7.2s-8.7,7.1-7.2,12.5l0,0
	C371.2,232.3,376.8,235.5,382.3,234.1z"/>
<path class="st0" d="M352.3,239.3c4-1.1,6.4-5.2,5.3-9.2s-5.2-6.4-9.2-5.3c-4,1.1-6.4,5.2-5.3,9.2l0,0
	C344.2,238,348.3,240.4,352.3,239.3z"/>
<path class="st1" d="M329,242.8c2.5-0.7,4-3.3,3.4-5.8s-3.3-4-5.8-3.4c-2.5,0.7-4,3.3-3.4,5.8C323.8,241.9,326.4,243.4,329,242.8z"
	/>
<path class="st2" d="M391.5,187.7c3.8,6.5,12.1,8.8,18.6,5s8.8-12.1,5-18.6s-12.1-8.8-18.6-5l0,0C390,172.9,387.7,181.2,391.5,187.7
	z"/>
<path class="st2" d="M361.4,205c2.6,4.6,8.4,6.1,13,3.5s6.1-8.4,3.5-13s-8.4-6.1-13-3.5l0,0C360.4,194.6,358.8,200.4,361.4,205z"/>
<path class="st2" d="M340,209.5c-3.3,1.9-4.4,6-2.5,9.3s6,4.4,9.3,2.5s4.4-6,2.5-9.3l0,0C347.5,208.8,343.3,207.7,340,209.5z"/>
<path class="st2" d="M320.9,223.3c-2.1,1.2-2.9,3.9-1.7,6c1.2,2.1,3.9,2.9,6,1.7s2.9-3.9,1.7-6l0,0
	C325.7,222.9,323,222.1,320.9,223.3z"/>
<path class="st3" d="M390,161c4.8-4.8,4.8-12.5,0-17.3s-12.5-4.8-17.3,0s-4.8,12.5,0,17.3C377.4,165.8,385.2,165.8,390,161L390,161z
	"/>
<path class="st3" d="M360.1,173.5c-3.5-3.5-9.1-3.5-12.5,0c-3.5,3.5-3.5,9.1,0,12.5c3.5,3.5,9.1,3.5,12.5,0l0,0
	C363.6,182.5,363.6,176.9,360.1,173.5z"/>
<path class="st3" d="M328.1,196.8c-2.4,2.4-2.4,6.3,0,8.7s6.3,2.4,8.7,0c2.4-2.4,2.4-6.3,0-8.6C334.4,194.4,330.5,194.4,328.1,196.8
	z"/>
<path class="st3" d="M313,220.6c1.6,1.6,4.2,1.6,5.8,0c1.6-1.6,1.6-4.2,0-5.8s-4.2-1.6-5.8,0S311.4,219,313,220.6L313,220.6z"/>
<path class="st4" d="M346.9,140.4c5.5,3.2,12.6,1.3,15.8-4.2s1.3-12.6-4.2-15.8c-5.5-3.2-12.6-1.3-15.8,4.2l0,0
	C339.4,130.1,341.3,137.2,346.9,140.4C346.8,140.4,346.9,140.4,346.9,140.4z"/>
<path class="st4" d="M326.2,159.9c-2.3,3.9-0.9,8.9,3,11.2s8.9,0.9,11.2-3c2.3-3.9,0.9-8.9-3-11.2
	C333.4,154.6,328.4,156,326.2,159.9L326.2,159.9z"/>
<path class="st4" d="M320.8,185.5c-2.6-1.5-5.9-0.6-7.4,2s-0.6,5.9,2,7.4s5.9,0.6,7.4-2C324.3,190.3,323.4,187,320.8,185.5z"/>
<path class="st4" d="M308.2,207.3c-1.8-1-4.1-0.4-5.1,1.4s-0.4,4.1,1.4,5.1s4.1,0.4,5.1-1.4C310.6,210.6,310,208.3,308.2,207.3
	L308.2,207.3z"/>
<path class="st5" d="M316.5,127.1c5.8,1.6,11.8-1.9,13.3-7.7c1.6-5.8-1.9-11.8-7.7-13.3s-11.8,1.9-13.3,7.7l0,0
	C307.2,119.6,310.7,125.6,316.5,127.1z"/>
<path class="st5" d="M307.3,161.3c4,1.1,8.1-1.3,9.2-5.3s-1.3-8.1-5.3-9.2c-4-1.1-8.1,1.3-9.2,5.3l0,0
	C301,156.1,303.3,160.2,307.3,161.3z"/>
<path class="st5" d="M300.1,188.3c2.7,0.7,5.5-0.9,6.2-3.6s-0.9-5.5-3.6-6.2s-5.5,0.9-6.2,3.6C295.8,184.7,297.4,187.5,300.1,188.3z
	"/>
<path class="st5" d="M292.1,205.1c-0.5,1.8,0.6,3.7,2.4,4.2s3.7-0.6,4.2-2.4c0.5-1.8-0.6-3.7-2.4-4.2l0,0
	C294.4,202.2,292.5,203.3,292.1,205.1z"/>
<path class="st6" d="M283.5,122.1c5.6,0,10.2-4.6,10.2-10.2s-4.6-10.2-10.2-10.2s-10.2,4.6-10.2,10.2l0,0
	C273.3,117.6,277.9,122.1,283.5,122.1L283.5,122.1z"/>
<path class="st6" d="M283.5,143.9c-3.8,0-6.8,3-6.8,6.8s3,6.8,6.8,6.8s6.8-3,6.8-6.8l0,0C290.3,147,287.3,143.9,283.5,143.9z"/>
<path class="st6" d="M288.3,181c0-2.6-2.1-4.8-4.8-4.8s-4.8,2.1-4.8,4.8s2.1,4.8,4.8,4.8l0,0C286.2,185.8,288.3,183.6,288.3,181
	L288.3,181z"/>
<path class="st6" d="M283.5,201.4c-1.7,0-3.1,1.4-3.1,3.1c0,1.7,1.4,3.1,3.1,3.1s3.1-1.4,3.1-3.1l0,0
	C286.6,202.8,285.2,201.4,283.5,201.4z"/>
<path class="st7" d="M250.2,125.9c5.1-1.4,8.1-6.6,6.7-11.7s-6.6-8.1-11.7-6.7s-8.1,6.6-6.7,11.7l0,0
	C239.9,124.2,245.2,127.2,250.2,125.9z"/>
<path class="st7" d="M251.9,155.7c0.9,3.3,4.2,5.2,7.5,4.3s5.2-4.2,4.3-7.5c-0.9-3.3-4.2-5.2-7.5-4.3l0,0
	C253,149.1,251,152.5,251.9,155.7z"/>
<path class="st7" d="M261.4,184.6c0.6,2.4,3.1,3.8,5.4,3.1c2.4-0.6,3.8-3.1,3.1-5.4c-0.6-2.4-3.1-3.8-5.4-3.1
	C262.1,179.8,260.8,182.2,261.4,184.6C261.4,184.5,261.4,184.5,261.4,184.6z"/>
<path class="st7" d="M269.1,206.8c0.4,1.5,1.9,2.3,3.3,1.9c1.5-0.4,2.3-1.9,1.9-3.3c-0.4-1.5-1.9-2.3-3.3-1.9l0,0
	C269.6,203.9,268.7,205.3,269.1,206.8z"/>
<path class="st8" d="M218.9,138.2c4.2-2.4,5.7-7.9,3.3-12.1s-7.9-5.7-12.1-3.3c-4.2,2.4-5.7,7.9-3.3,12.1l0,0
	C209.3,139.2,214.7,140.6,218.9,138.2z"/>
<path class="st8" d="M236.6,168.8c2.6-1.5,3.5-4.8,2-7.4c-1.5-2.6-4.8-3.5-7.4-2c-2.6,1.5-3.5,4.8-2,7.4l0,0
	C230.6,169.4,234,170.3,236.6,168.8L236.6,168.8z"/>
<path class="st8" d="M251,193.9c2-1.1,2.6-3.6,1.5-5.6s-3.6-2.6-5.6-1.5s-2.6,3.6-1.5,5.6l0,0C246.6,194.3,249.1,195,251,193.9
	L251,193.9z"/>
<path class="st8" d="M262.8,209.5c-0.7-1.1-2.1-1.5-3.3-0.9c-1.1,0.7-1.5,2.1-0.9,3.3c0.7,1.1,2.1,1.5,3.2,0.9
	C263.1,212.1,263.5,210.6,262.8,209.5z"/>
<path class="st9" d="M191.6,158.3c3.2-3.2,3.2-8.4,0-11.6c-3.2-3.2-8.4-3.2-11.6,0c-3.2,3.2-3.2,8.4,0,11.6l0,0
	C183.3,161.5,188.5,161.5,191.6,158.3z"/>
<path class="st9" d="M216.7,176.6c-1.9-1.9-4.9-1.9-6.7,0c-1.9,1.9-1.9,4.9,0,6.7c1.9,1.9,4.9,1.9,6.7,0l0,0
	C218.5,181.4,218.5,178.4,216.7,176.6z"/>
<path class="st9" d="M237.4,198.7c-1.5-1.5-3.8-1.5-5.3,0s-1.5,3.8,0,5.3s3.8,1.5,5.3,0C238.8,202.5,238.8,200.2,237.4,198.7
	L237.4,198.7z"/>
<path class="st9" d="M252.8,216.5c-0.8-0.8-2.1-0.7-2.8,0.1c-0.8,0.8-0.7,2.1,0.1,2.8s2,0.7,2.8,0
	C253.6,218.6,253.6,217.3,252.8,216.5z"/>
<path class="st10" d="M160,187.4c3.6,2.1,8.2,0.8,10.2-2.7c2.1-3.6,0.8-8.2-2.7-10.2c-3.6-2.1-8.2-0.8-10.2,2.7l0,0
	C155.2,180.7,156.4,185.3,160,187.4z"/>
<path class="st10" d="M199.6,197c-2-1.1-4.4-0.4-5.6,1.5c-1.1,2-0.4,4.4,1.5,5.6c2,1.1,4.4,0.5,5.6-1.5
	C202.2,200.6,201.5,198.1,199.6,197z"/>
<path class="st10" d="M225.5,212.7c-1.6-0.9-3.7-0.4-4.6,1.3c-0.9,1.6-0.4,3.7,1.3,4.6c1.6,0.9,3.7,0.4,4.6-1.2
	C227.7,215.8,227.1,213.7,225.5,212.7L225.5,212.7z"/>
<path class="st11" d="M421.9,233.6c-9,0-16.4,7.3-16.4,16.4c0,9,7.3,16.4,16.4,16.4c9,0,16.3-7.3,16.4-16.3
	C438.2,241,430.9,233.6,421.9,233.6L421.9,233.6z"/>
<path class="st11" d="M394.8,250c0-6.5-5.2-11.7-11.7-11.7s-11.7,5.2-11.7,11.7s5.2,11.7,11.7,11.7l0,0
	C389.5,261.7,394.8,256.5,394.8,250z"/>
<path class="st11" d="M352.8,242c-4.4,0-8,3.6-8,8s3.6,8,8,8s8-3.6,8-8S357.2,242,352.8,242z"/>
<path class="st12" d="M334.5,250c0-2.9-2.3-5.2-5.2-5.2c-2.9,0-5.2,2.3-5.2,5.2s2.3,5.2,5.2,5.2l0,0
	C332.2,255.2,334.5,252.9,334.5,250L334.5,250z"/>
<path class="st13" d="M421,271.2c-8-2.2-16.2,2.6-18.4,10.6c-2.2,8,2.6,16.2,10.6,18.4c8,2.2,16.2-2.6,18.4-10.6c0,0,0,0,0-0.1
	C433.7,281.6,428.9,273.4,421,271.2z"/>
<path class="st13" d="M377,285.5c5.4,1.5,11-1.8,12.5-7.2c1.5-5.4-1.8-11-7.2-12.5c-5.4-1.5-11,1.8-12.5,7.2
	C368.3,278.4,371.5,284,377,285.5L377,285.5z"/>
<path class="st13" d="M348.4,275.1c4,1.1,8.1-1.3,9.2-5.3s-1.3-8.1-5.3-9.2s-8.1,1.3-9.2,5.3C342.1,269.9,344.4,274,348.4,275.1
	L348.4,275.1z"/>
<path class="st13" d="M326.5,266.4c2.5,0.7,5.1-0.8,5.8-3.4c0.7-2.5-0.8-5.1-3.4-5.8c-2.5-0.7-5.1,0.8-5.8,3.4
	C322.4,263,323.9,265.7,326.5,266.4C326.5,266.3,326.5,266.3,326.5,266.4z"/>
<path class="st14" d="M410.1,307.2c-6.5-3.8-14.8-1.5-18.6,5s-1.5,14.8,5,18.6c6.5,3.8,14.8,1.5,18.6-5
	C418.8,319.3,416.6,311,410.1,307.2z"/>
<path class="st14" d="M378,304.4c2.6-4.6,1.1-10.4-3.5-13s-10.4-1.1-13,3.5s-1.1,10.4,3.5,13l0,0C369.5,310.5,375.3,308.9,378,304.4
	z"/>
<path class="st14" d="M349.3,287.9c1.9-3.3,0.8-7.4-2.5-9.3s-7.4-0.8-9.3,2.5s-0.8,7.4,2.5,9.3l0,0
	C343.3,292.2,347.4,291.1,349.3,287.9z"/>
<path class="st14" d="M327,274.9c1.2-2.1,0.5-4.8-1.6-6.1c-2.1-1.2-4.8-0.5-6.1,1.6s-0.5,4.8,1.6,6.1c0,0,0,0,0.1,0
	C323.1,277.7,325.8,277,327,274.9z"/>
<path class="st15" d="M372.6,338.9c-4.8,4.8-4.8,12.5,0,17.3s12.5,4.8,17.3,0s4.8-12.5,0-17.3C385.2,334.2,377.4,334.2,372.6,338.9z
	"/>
<path class="st15" d="M360.1,326.4c3.5-3.5,3.5-9.1,0-12.5c-3.5-3.5-9.1-3.5-12.5,0c-3.5,3.5-3.5,9.1,0,12.5
	C351,329.9,356.6,329.9,360.1,326.4L360.1,326.4z"/>
<path class="st15" d="M336.8,303.1c2.4-2.4,2.4-6.3,0-8.7c-2.4-2.4-6.3-2.4-8.7,0c-2.4,2.4-2.4,6.3,0,8.6
	C330.5,305.5,334.4,305.5,336.8,303.1L336.8,303.1z"/>
<path class="st15" d="M313,285c1.6,1.6,4.2,1.6,5.8,0c1.6-1.6,1.6-4.2,0-5.8c-1.6-1.6-4.2-1.6-5.8,0l0,0
	C311.4,280.8,311.4,283.4,313,285L313,285z"/>
<path class="st16" d="M346.9,359.5c-5.5,3.2-7.4,10.3-4.2,15.8c3.2,5.5,10.3,7.4,15.8,4.2c5.5-3.2,7.4-10.3,4.2-15.8l0,0
	C359.5,358.2,352.4,356.3,346.9,359.5L346.9,359.5z"/>
<path class="st16" d="M340.3,331.9c-2.3-3.9-7.2-5.3-11.2-3c-3.9,2.3-5.3,7.2-3,11.2c2.3,3.9,7.2,5.3,11.2,3
	C341.2,340.8,342.6,335.8,340.3,331.9L340.3,331.9z"/>
<path class="st16" d="M320.8,314.4c2.6-1.5,3.5-4.8,2-7.4s-4.8-3.5-7.4-2s-3.5,4.8-2,7.4S318.2,315.9,320.8,314.4L320.8,314.4z"/>
<path class="st16" d="M304.5,286.1c-1.8,1-2.4,3.3-1.4,5.1s3.3,2.4,5.1,1.4c1.8-1,2.4-3.3,1.4-5.1
	C308.6,285.7,306.3,285.1,304.5,286.1L304.5,286.1z"/>
<path class="st17" d="M316.5,372.8c-5.8,1.6-9.3,7.5-7.7,13.3c1.6,5.8,7.5,9.3,13.3,7.7c5.8-1.6,9.3-7.5,7.7-13.3l0,0
	C328.3,374.7,322.3,371.2,316.5,372.8L316.5,372.8z"/>
<path class="st17" d="M311.2,353c4-1.1,6.4-5.2,5.3-9.2s-5.2-6.4-9.2-5.3s-6.3,5.2-5.3,9.2C303.1,351.8,307.2,354.1,311.2,353
	C311.2,353.1,311.2,353.1,311.2,353z"/>
<path class="st17" d="M306.3,315.2c-0.7-2.7-3.5-4.3-6.2-3.6s-4.3,3.5-3.6,6.2c0.7,2.7,3.5,4.3,6.2,3.6
	C305.5,320.8,307.1,318,306.3,315.2C306.3,315.3,306.3,315.3,306.3,315.2z"/>
<path class="st17" d="M298.6,293c-0.5-1.8-2.4-2.9-4.2-2.4c-1.8,0.5-2.9,2.4-2.4,4.2c0.5,1.8,2.3,2.9,4.2,2.4
	C298,296.7,299.1,294.8,298.6,293L298.6,293z"/>
<path class="st18" d="M283.5,377.8c-5.6,0-10.2,4.6-10.2,10.2s4.6,10.2,10.2,10.2s10.2-4.5,10.2-10.2
	C293.7,382.4,289.2,377.8,283.5,377.8L283.5,377.8z"/>
<path class="st18" d="M276.7,349.2c0,3.8,3,6.8,6.8,6.8s6.8-3,6.8-6.8s-3-6.8-6.8-6.8l0,0C279.8,342.4,276.7,345.4,276.7,349.2z"/>
<path class="st18" d="M283.5,323.6c2.6,0,4.8-2.1,4.8-4.8s-2.1-4.8-4.8-4.8c-2.6,0-4.8,2.1-4.8,4.8
	C278.8,321.5,280.9,323.6,283.5,323.6C283.5,323.7,283.5,323.7,283.5,323.6z"/>
<path class="st18" d="M283.5,292.3c-1.7,0-3.1,1.4-3.1,3.1s1.4,3.1,3.1,3.1s3.1-1.4,3.1-3.1l0,0
	C286.6,293.7,285.2,292.3,283.5,292.3z"/>
<path class="st19" d="M250.2,374c-5.1-1.4-10.3,1.7-11.7,6.7c-1.4,5.1,1.7,10.3,6.7,11.7c5.1,1.4,10.3-1.7,11.7-6.7
	C258.3,380.6,255.3,375.4,250.2,374L250.2,374z"/>
<path class="st19" d="M259.4,339.8c-3.3-0.9-6.6,1.1-7.5,4.3c-0.9,3.3,1.1,6.6,4.3,7.5c3.3,0.9,6.6-1.1,7.5-4.3
	C264.6,344.1,262.7,340.7,259.4,339.8z"/>
<path class="st19" d="M266.8,312.2c-2.4-0.6-4.8,0.8-5.4,3.1c-0.6,2.4,0.8,4.8,3.1,5.4c2.4,0.6,4.8-0.8,5.4-3.1l0,0
	C270.6,315.3,269.2,312.9,266.8,312.2L266.8,312.2z"/>
<path class="st19" d="M274.4,294.5c0.4-1.5-0.5-3-1.9-3.3s-3,0.5-3.3,1.9s0.5,3,1.9,3.3l0,0C272.5,296.8,274,296,274.4,294.5z"/>
<path class="st20" d="M218.9,361.7c-4.2-2.4-9.6-1-12.1,3.2c-2.4,4.2-1,9.6,3.2,12.1c4.2,2.4,9.6,1,12.1-3.2
	C224.6,369.6,223.1,364.2,218.9,361.7L218.9,361.7z"/>
<path class="st20" d="M236.6,331.1c-2.6-1.5-5.9-0.6-7.4,2s-0.6,5.9,2,7.4s5.9,0.6,7.4-2l0,0C240.1,335.9,239.2,332.6,236.6,331.1
	L236.6,331.1z"/>
<path class="st20" d="M247,313.1c2,1.1,4.5,0.5,5.6-1.5s0.5-4.5-1.5-5.6s-4.5-0.5-5.6,1.5l0,0C244.4,309.5,245,312,247,313.1z"/>
<path class="st20" d="M262,287.1c-1.1-0.7-2.6-0.3-3.2,0.9c-0.7,1.1-0.3,2.6,0.9,3.2c1.1,0.7,2.6,0.3,3.2-0.9
	C263.5,289.3,263.1,287.8,262,287.1C262,287.2,262,287.2,262,287.1z"/>
<path class="st21" d="M180.1,341.6c-3.2,3.2-3.2,8.4,0,11.6s8.4,3.2,11.6,0s3.2-8.4,0-11.6l0,0C188.5,338.4,183.3,338.4,180.1,341.6
	z"/>
<path class="st21" d="M210,316.6c-1.9,1.9-1.9,4.9,0,6.7c1.9,1.9,4.9,1.9,6.7,0s1.9-4.9,0-6.7l0,0
	C214.9,314.7,211.8,314.7,210,316.6L210,316.6z"/>
<path class="st21" d="M232.1,295.9c-1.5,1.5-1.5,3.8,0,5.3s3.8,1.5,5.3,0s1.5-3.8,0-5.3C235.9,294.4,233.5,294.4,232.1,295.9
	L232.1,295.9z"/>
<path class="st21" d="M252.8,280.5c-0.8-0.8-2.1-0.7-2.8,0.1c-0.8,0.8-0.7,2.1,0.1,2.8c0.8,0.7,2,0.7,2.8,0
	C253.6,282.6,253.6,281.3,252.8,280.5z"/>
<path class="st22" d="M160.2,312.3c-3.6,2.1-4.8,6.6-2.7,10.2s6.6,4.8,10.2,2.7c3.6-2.1,4.8-6.6,2.7-10.2
	C168.4,311.4,163.8,310.2,160.2,312.3L160.2,312.3z"/>
<path class="st22" d="M195.5,295.8c-1.9,1.1-2.6,3.6-1.5,5.6c1.1,1.9,3.6,2.6,5.6,1.5c1.9-1.1,2.6-3.6,1.5-5.6
	C200,295.4,197.5,294.7,195.5,295.8L195.5,295.8z"/>
<path class="st22" d="M222.1,281.3c-1.6,0.9-2.2,3-1.2,4.6c0.9,1.6,3,2.2,4.6,1.2c1.6-0.9,2.2-3,1.2-4.6
	C225.8,280.9,223.7,280.3,222.1,281.3L222.1,281.3z"/>
<path class="st23" d="M145,226.2h12v46.2h-12V226.2z M152.3,205.6c-3.7-1-7.5,1.2-8.5,4.9s1.2,7.5,4.9,8.5s7.5-1.2,8.5-4.9
	C158.2,210.4,156,206.5,152.3,205.6L152.3,205.6L152.3,205.6z M194.1,273.4c-2.9,0-5.8-0.5-8.5-1.7c-2.4-1.1-4.5-2.8-6.1-4.9v28.7
	h-11.7v-69.3h11.6v6.4c1.5-2.3,3.6-4.1,6.1-5.4c2.6-1.3,5.5-2,8.5-2c2.9,0,5.7,0.6,8.4,1.7c2.7,1.1,5.1,2.8,7.1,4.8
	c2.1,2.2,3.8,4.8,4.9,7.6c1.3,3.2,1.9,6.5,1.8,9.9c0.1,3.4-0.6,6.8-1.9,10c-1.2,2.8-2.9,5.4-5,7.6
	C205.4,271,199.8,273.4,194.1,273.4L194.1,273.4z M191.7,262.2c1.7,0,3.4-0.3,5-1c1.5-0.7,2.9-1.6,4.1-2.8c1.2-1.2,2.1-2.6,2.7-4.1
	c1.3-3.3,1.3-6.9,0-10.2c-0.6-1.5-1.6-2.9-2.7-4.1c-1.2-1.2-2.6-2.1-4.1-2.8c-1.6-0.7-3.3-1-5-1c-3.4,0-6.7,1.4-9.2,3.8
	c-1.2,1.2-2.1,2.6-2.7,4.1c-1.3,3.3-1.3,6.9,0,10.1c0.6,1.5,1.5,2.9,2.7,4.1C185,260.9,188.3,262.3,191.7,262.2L191.7,262.2z
	 M224.8,226.2h11.6v7.1c1-2.5,2.7-4.6,5-6c2.4-1.3,5-2,7.8-1.9c1.5,0,2.9,0.2,4.3,0.5c1.2,0.3,2.4,0.7,3.5,1.3l-4.3,11.6
	c-0.8-0.5-1.7-0.9-2.6-1.2c-1.2-0.3-2.4-0.5-3.6-0.5c-2.7-0.1-5.3,0.8-7.3,2.5c-1.8,1.7-2.7,4.5-2.7,8.3v24.4h-11.7L224.8,226.2z
	 M283.1,273.4c-3.3,0-6.6-0.6-9.7-1.9c-2.9-1.2-5.5-3-7.8-5.2c-4.5-4.5-7-10.6-7-17c0-3.2,0.6-6.4,1.8-9.4c1.2-2.9,2.9-5.5,5.1-7.7
	c9.7-9.4,25.1-9.4,34.8,0c4.5,4.5,7.1,10.6,7.1,17c0,3.2-0.6,6.4-1.9,9.3c-1.2,2.9-3,5.5-5.1,7.7c-2.2,2.2-4.8,4-7.8,5.2
	C289.7,272.7,286.4,273.4,283.1,273.4L283.1,273.4z M283.2,262.2c1.7,0,3.4-0.3,5-1c1.5-0.7,2.8-1.6,4-2.7c1.2-1.2,2.1-2.6,2.7-4.1
	c1.3-3.3,1.3-6.9,0-10.1c-0.6-1.5-1.5-2.9-2.7-4.1c-1.2-1.2-2.5-2.1-4-2.7c-3.2-1.4-6.8-1.4-9.9,0c-1.5,0.7-2.8,1.6-4,2.7
	c-1.2,1.2-2.1,2.6-2.7,4.1c-1.3,3.3-1.3,6.9,0,10.1c0.6,1.5,1.5,2.9,2.7,4.1s2.5,2.1,4,2.7C279.8,261.8,281.5,262.2,283.2,262.2
	L283.2,262.2z M61.5,226.2h12l9.3,29.5l11-29.5h10.4l10.8,29.5l9.7-29.5h12L121,272.4h-11.1l-11-30.1l-11.1,30.1H76.5L61.5,226.2z"
	/>
</svg>
